<?xml version="1.0" encoding="UTF-8" standalone="no"?>
<svg
   version="1.1"
   width="5.1020141cm"
   height="2.5000024cm"
   viewBox="0 0 51020140 25000023"
   id="svg49427"
   sodipodi:docname="8bit-wave-back.svg"
   inkscape:version="1.2.2 (b0a8486541, 2022-12-01)"
   xmlns:inkscape="http://www.inkscape.org/namespaces/inkscape"
   xmlns:sodipodi="http://sodipodi.sourceforge.net/DTD/sodipodi-0.dtd"
   xmlns="http://www.w3.org/2000/svg"
   xmlns:svg="http://www.w3.org/2000/svg"
   xmlns:rdf="http://www.w3.org/1999/02/22-rdf-syntax-ns#"
   xmlns:cc="http://creativecommons.org/ns#"
   xmlns:dc="http://purl.org/dc/elements/1.1/">
  <defs
     id="defs49431" />
  <sodipodi:namedview
     id="namedview49429"
     pagecolor="#ffffff"
     bordercolor="#666666"
     borderopacity="1.0"
     inkscape:showpageshadow="2"
     inkscape:pageopacity="0.0"
     inkscape:pagecheckerboard="0"
     inkscape:deskcolor="#d1d1d1"
     inkscape:document-units="cm"
     showgrid="false"
     inkscape:zoom="1.4574316"
     inkscape:cx="-1.3722771"
     inkscape:cy="36.365342"
     inkscape:window-width="1920"
     inkscape:window-height="1025"
     inkscape:window-x="0"
     inkscape:window-y="55"
     inkscape:window-maximized="1"
     inkscape:current-layer="svg49427" />
  <title
     id="title49223">SVG Picture created as PCB-B_Courtyard.svg date 2023/08/26 15:14:45 </title>
  <desc
     id="desc49225">Picture generated by PCBNEW </desc>
  <g
     style="fill:#000000;fill-opacity:1;stroke:#000000;stroke-linecap:round;stroke-linejoin:round;stroke-opacity:1"
     id="g49227"
     transform="translate(-71207022,-19726961)" />
  <g
     style="fill:#000000;fill-opacity:0;stroke:#000000;stroke-width:0;stroke-linecap:round;stroke-linejoin:round;stroke-opacity:1"
     id="g49229"
     transform="translate(-71207022,-19726961)" />
  <g
     style="fill:#848484;fill-opacity:0;stroke:#848484;stroke-width:0;stroke-linecap:round;stroke-linejoin:round;stroke-opacity:1"
     id="g49231"
     transform="translate(-71207022,-19726961)" />
  <g
     style="fill:#000000;fill-opacity:0;stroke:#000000;stroke-width:50000;stroke-linecap:round;stroke-linejoin:round;stroke-opacity:1"
     id="g49331"
     transform="translate(-71207022,-19726961)" />
  <g
     style="fill:#c2c200;fill-opacity:0;stroke:#c2c200;stroke-width:50000;stroke-linecap:round;stroke-linejoin:round;stroke-opacity:1"
     id="g49333"
     transform="translate(-71207022,-19726961)" />
  <path
     id="path49347"
     style="fill:#ff0000;fill-opacity:0.724638;stroke:none;stroke-width:100000;stroke-linecap:round;stroke-linejoin:round;stroke-opacity:1"
     d="m 34692458,0 -130740,67696 -611850,316777 39790,76481 39270,75964 -149860,-47542 -149340,-47543 -242370,163815 -242360,163297 265100,530717 265100,531234 75970,163814 75960,163814 -123510,117823 -123500,118339 -848010,456819 -848010,456820 -351400,-737939 -351400,-737940 -127130,-11369 -127120,-11885 -710040,374137 -710550,373621 -165880,79065 -166400,79065 -344160,-722954 -344167,-722953 -103352,11369 -102837,11885 -921907,459404 -922424,459920 -127124,-24805 -127124,-24804 -341582,-681096 -341581,-680578 -125057,-9819 -125057,-9301 -10335,113688 -9819,113171 -48059,-89400 -47542,-89917 -637687,341064 -637171,341065 -6717,84232 h 516 l -6718,84233 -851110,440800 -851111,440800 302824,588594 302823,589112 1185458,2286682 4248319,-6718 -13436,-25322 -18603,-35656 35657,-18604 35656,-18603 18604,35656 18087,35657 -35657,18604 -15503,8268 6965466,-10852 883150,-448035 19640,-2753320 2324920,-35657 -290420,-626318 73900,-267684 73890,-267167 231000,-144177 230990,-144694 399980,-274402 399970,-274402 60460,-269751 60980,-269234 L 39621358,0 h -2706820 l 304890,589111 -158130,87333 -158120,87850 -472840,308509 -472840,308508 L 35565788,565857 35293448,0 Z m 16053280,320911 -1476390,772045 -2092380,1093990 -53230,-72863 -53740,-73381 -356050,-673860 -356060,-674378 -805110,441317 -805120,441317 -12920,39790 -12400,40308 337960,686263 337960,686263 -390150,232027 -390160,232027 -500230,229961 -500740,230476 -217040,-479040 -217050,-478524 -164840,-210840 -164850,-210840 -823720,411862 -823730,412378 369490,714168 370000,713651 -934310,509013 -933790,509013 506430,1026294 506430,1026294 -232030,-23771 -231510,-23771 -59940,99735 -59950,99736 -428910,228926 -429430,228927 -256830,-445451 -256840,-445968 -52190,-31522 -3100,829406 -1586470,-1550 -118340,67179 -10330,33073 -10340,32557 609270,1186490 609260,1185975 -112650,69246 -112660,69246 -466120,234611 -466120,234095 -408760,207739 -408760,208256 -361730,-649056 -362260,-648539 -349850,109554 -349850,109554 -617010,293005 -616500,292489 -460960,-899687 -460950,-899687 -166910,36174 -166920,36690 -980300,506429 -980820,506429 -47020,-88367 -47030,-88366 -10340,116272 -10330,116788 -1590600,848011 -1590085,848010 469222,954464 469222,954463 -644406,333830 -643888,333313 -102836,149862 -102319,149345 -36174,-100253 -36173,-100769 -864030,-1648478 -864547,-1648478 -866614,421163 -867130,421163 34106,65112 34107,65112 -65629,-20670 -65629,-20671 -489376,-972550 -489893,-972034 -965316,500228 -965832,499711 184485,379305 183968,379305 274402,550354 274918,550871 -19637,63045 -20153,63562 -475424,288871 -475423,288872 -258382,42891 -258382,43408 -151412,168982 -151412,169499 -479041,-925008 -479040,-924492 -2025199,1048515 -2024166,1048515 269234,493510 269234,492993 -43408,22738 -43925,22221 126607,160713 126091,160714 102836,-53227 102836,-53226 -7235,94051 -6718,94051 75448,-39274 75448,-38758 -37724,-93534 -37724,-93534 -37724,-50643 -37207,-50126 219108,-58395 218591,-58911 108521,-19120 109037,-19637 -7234,95084 -7235,94568 71830,-37207 71830,-37207 15503,-166398 16020,-166398 25838,145211 25838,144694 63046,-32556 63045,-33073 -16537,-104387 -16536,-104386 188619,-101803 188102,-101802 34107,65629 33589,65629 60978,-143661 60462,-143660 162264,-36690 162264,-36691 -33073,-64595 -33590,-64596 67696,-35140 68213,-35140 444418,876949 444934,876949 11368,84750 11369,84232 -1115177,550354 -1115177,550354 -349850,-675411 -349849,-675927 -2061890,1092956 -2061890,1093474 -151412,-328663 -151411,-328145 -308509,-573092 -308508,-573091 -945679,478007 -945162,478524 -10335,116788 -10335,117306 203605,395841 203605,396359 -34623,109554 -35140,109554 199988,189135 199987,189136 -14469,35657 -14469,35657 -761194,450101 -760677,450619 -117306,-10336 -117305,-10335 -421680,-681095 -421163,-681096 -935343,459404 -935344,458887 -113171,-74414 -112655,-74414 -732772,379821 -733288,379305 -22738,72347 -22737,71831 360701,696598 360702,696598 101802,7752 101803,7751 913639,-424263 913639,-424264 257349,576192 257349,576192 297139,-137976 297656,-138492 537435,-271302 537435,-271301 472323,862480 471806,862479 270784,-126090 270785,-126091 225309,-88366 225309,-88884 436149,-227376 436149,-226860 382923,710034 383439,709518 -926042,479557 -589628,305408 h 4446240 l -403593,-783415 -1046964,-2033467 190169,-101803 190686,-102319 1673800,-869715 1673799,-869714 252181,-124023 251664,-124024 664559,1282609 664559,1283126 -53743,27388 -53227,27906 52193,100769 52193,101286 84750,-13436 84749,-13436 204639,374137 204638,374654 -39274,122474 -38757,122473 103353,199471 103353,199471 80098,-41341 80099,-41342 -30489,140044 -31006,140043 199471,337447 167948,284737 h 386540 l 2606559,-1405082 2764172,-1490865 213424,62011 213424,61495 664559,1261422 664042,1261422 56844,67696 57361,67179 -222726,114722 h 3817335 l 990640,-510563 2007630,-1034046 59940,-47025 59950,-47543 545190,-271818 545180,-271301 245460,504879 245470,504879 173630,45475 173120,45992 416510,-124540 415990,-124540 352950,-182935 353470,-182935 196890,417546 197400,418062 239260,440800 227900,419613 h 52190 l 921390,-476974 962220,-498160 181900,334863 181900,335380 167430,304891 h 1948720 l 10330,-5168 2590,5168 h 73380 l 7230,-36174 43930,-216007 110580,-56844 110080,-57361 207730,366386 h 1917720 l 559140,-265100 57870,-59945 57360,-59945 -52190,-101285 -52190,-100769 71310,-36691 71320,-37207 -258390,-498677 -258380,-499195 151410,-78031 150900,-78548 -33070,152962 -33590,152962 29450,-8268 29460,-8268 140040,-41858 140560,-41858 -99220,-99219 -99220,-99735 541050,-304891 541570,-304891 93020,-91984 93020,-91467 -422200,-775664 -421680,-775146 658880,-341065 658870,-341581 -248050,-526583 -248040,-527099 -128680,-291972 -129190,-292489 515220,-376204 514690,-376721 315750,-183968 315740,-183968 93020,-126608 92500,-126607 -306440,-591695 -306440,-591178 106970,-55294 106970,-55811 32040,62012 32030,62012 91470,-129191 91470,-128675 2175060,-1115694 488340,-250631 V 9783899 l -29450,-56844 29450,-15503 v -276469 l -67180,-129708 -94050,-7235 -94050,-7234 -74930,-144694 -74930,-144694 -730190,408760 -730190,408761 -26350,83715 -26360,83716 551910,1135331 552420,1135332 -13950,44958 -13960,44959 -377750,-700733 -377240,-700732 89400,241846 89400,242362 -839740,463021 -839740,462504 -376720,-727604 -376210,-727088 -256310,76998 -255800,76998 -513670,313159 -513660,313676 -51680,30489 -51670,31006 409790,804602 409280,805119 -82170,-70797 -81640,-70280 -782900,405144 -782900,405660 -95090,138492 -95600,139010 109560,400492 109550,400493 106450,206189 106970,206189 -40820,68213 -40310,67696 -505910,278536 -505910,278019 -7750,149345 -7240,149345 -58910,-108004 -58910,-108521 -820110,447518 -819580,447518 -9300,30489 -9310,29973 344690,725537 345190,725020 344170,-120923 344160,-120923 -387050,212390 -387580,211874 -680060,345198 -679540,345199 -254250,213940 -254250,213941 -159680,-423230 -160200,-422713 -233060,-421680 -233570,-421163 -1208200,625285 -1207680,625801 -59430,-26871 -59420,-27389 -780320,365352 -780830,364836 -35140,110588 -35140,110587 -377240,-729154 -377750,-729155 -136940,15503 -136950,14986 -17570,135393 -18080,135392 -82170,-70280 -82680,-70280 -100770,52193 -100770,52193 44960,89917 44960,89401 -124540,-70797 -124540,-71314 44960,89917 45470,89401 -484210,243396 -484200,243912 68210,-79581 68210,-79582 -698150,-1349788 -698150,-1349789 -888310,460437 -888840,460437 38240,93018 38240,93017 701250,1336353 701770,1336352 -80100,-5684 -79580,-6201 -645960,315743 -645440,315226 -54260,90951 -54770,90950 -82170,-49092 -82160,-49093 111100,-57878 111100,-57361 -313670,-605647 -313680,-606165 -126090,62529 -125570,62528 86810,-137459 87340,-136943 -307480,-593762 -307470,-593245 -139528,-30489 -140044,-30490 -880049,460954 -880050,460954 -884700,449585 -884701,449068 -17570,55811 -17570,55810 -237195,517 -236678,517 -506429,242879 -506946,243396 -122989,67696 -122990,67696 -559656,303858 -559139,303340 -247013,66146 -247531,66146 -58911,140560 -59428,140043 -41341,-80099 -41341,-80098 -178284,92501 -178283,91984 39791,92501 40307,91984 -174149,-180351 -174150,-180351 -798918,-1616955 -798400,-1616956 -124024,-52193 -124023,-52710 80098,-41341 79582,-41341 -442867,-855245 -442867,-855245 524516,-271818 525032,-271818 340548,-120923 340548,-120923 293522,362252 294039,361735 607198,1057816 607198,1057817 154512,-26872 154513,-26355 205155,-135392 205156,-134875 208772,100252 209290,100252 343648,-240295 344165,-240296 -66662,-39791 -66663,-39790 -221175,152445 -220658,152446 -187586,-29973 -187585,-29972 380338,-194304 380339,-193786 23254,-73381 23255,-73897 -266134,-510046 -265617,-510047 -80615,-94051 -80099,-94051 -444417,-879533 -444934,-879016 1025777,-506429 1026294,-505912 517281,951880 517798,951880 389640,759126 389124,759127 146244,-33073 145728,-33073 2782257,-1427820 2782780,-1427819 292490,-150896 293000,-151411 301280,469222 300750,469222 101800,90433 101290,89917 43410,-72347 43410,-72863 72860,126090 72350,125574 159680,279052 159160,279053 524000,-210840 523480,-210839 460440,-288872 459920,-289388 55290,97669 55300,97151 290940,527100 290930,527616 1466060,-734839 1465550,-734838 10850,-119890 10340,-120406 47540,88367 47020,88367 1425240,-737940 1425750,-738456 -221690,-427364 -221180,-427881 96640,-27388 96630,-27389 -65620,-192236 -65630,-191720 54770,-95084 54780,-94568 516250,-268718 516250,-268717 -240300,-463021 -239780,-463538 109040,-56327 109040,-56844 -13440,-121440 -13440,-121439 -42890,-143144 -42890,-143144 -149860,-303340 -150380,-303341 791170,-435116 791680,-435632 -315230,-695565 -314710,-695564 917780,-495577 918290,-496094 297650,-156063 297660,-156580 -91470,-246496 -90950,-246497 131260,225826 131260,225826 197920,-97668 197920,-98185 948780,-480074 949300,-480074 302820,573091 302820,572575 129710,113688 129190,113688 86820,-33589 86300,-33590 574640,-286287 575160,-286288 194820,373621 194820,373620 120410,70280 120920,70797 8780,-47026 8790,-47542 49090,-286287 49610,-286288 -87330,-168465 -87340,-168465 63050,-32556 63560,-33073 111620,208773 V 1000456 c 0,-131322 -25710,-261598 -75960,-382923 -45940,-110903 -116600,-209054 -198440,-296622 z m -16714220,337447 165360,251147 165360,250631 130750,319360 130220,318844 -295590,-569991 z m -9022709,379305 -23255,72347 -22737,71830 -71830,-22738 -72347,-22737 95084,-49093 z m -807703,418579 18087,35656 18603,35657 -35656,18087 -35657,18603 -18604,-35656 -18086,-35657 35656,-18087 z m 24351482,178283 292490,503846 291970,504362 242880,529166 242880,529684 -534850,-1033529 z m -25225330,228927 c -103756,-97712 -44404,60947 -52710,72347 l 35657,-18087 35656,-18603 z m 19817910,1441772 18600,35657 18610,35657 -35660,18603 -35660,18087 -18600,-35657 -18600,-35656 35650,-18087 z m -7652240,407728 71830,22737 72340,23255 -22740,71830 -23250,72347 -49090,-95085 z m 5782590,853694 -152960,17570 -152970,17570 133850,43408 133840,42892 19120,-60462 z m 3814750,51160 65630,20670 65110,20671 11370,113171 10850,112655 -76480,-133325 z m -3874700,138493 -95080,49609 -95090,49093 71830,22737 72350,23255 22740,-72347 z m -15651238,31006 72347,22737 71831,22738 -22738,72347 -22738,72347 -49092,-95085 z m -3913456,250113 v 991671 l 521932,-1033 -277502,-530717 z m 6374805,313160 18087,35656 18603,35657 -35657,18604 -35656,18086 -18604,-35656 -18087,-35657 35657,-18087 z m -4498950,39790 49609,95085 49093,95085 22737,-71830 22738,-72347 -71830,-22738 z m -5760889,1529106 -214974,3101 -215490,2583 -1725993,916740 -1726510,917257 -399975,-772563 -400493,-772562 -1104325,572058 -1104842,572058 334346,645955 334864,646472 -2584,173633 -2067,174150 188102,-44442 188102,-44442 59945,-47542 59944,-47542 948780,-480591 948779,-480591 387573,748275 387573,748275 997872,-516765 997872,-516247 50126,86816 49610,86817 613399,1196826 613399,1196309 766878,-398425 766362,-398425 138493,-126091 137976,-126090 -362252,-698666 -361735,-698665 950330,-500745 950329,-500228 126607,139010 126608,139010 306958,589628 306441,589628 898136,-490410 898653,-490926 -270267,-517798 -4707206,-5167 -1034,-211357 -347266,176217 -181901,-461987 -181901,-461988 -111621,-255281 z m -5733500,476974 -95084,49092 -95085,49093 72347,23254 71830,22738 22738,-71830 z m 6041492,205155 94051,181901 94568,182418 27388,-13953 27389,-13952 -36691,-161748 -36173,-161747 -85266,-6718 z m 7188708,794783 1089856,2102714 100769,7752 100769,7751 677478,-382405 676961,-382406 73381,-81132 73380,-81132 -445450,-833541 -189653,-355017 z m 2293917,2584 166398,293522 288355,506946 37207,53744 37723,53743 50643,-84749 50643,-84749 -359668,-664559 -39791,-73381 z m 2048971,2584 191720,370003 20670,-3617 20670,-4134 712620,-361218 z m -10504786,1299662 -22737,72347 -22738,71831 -72347,-22738 -71830,-22738 95085,-49609 z m 23170166,293523 18600,35656 18600,35657 -35650,18087 -35660,18603 -18600,-35656 -18610,-35657 35660,-18604 z m -1794210,25321 18090,35657 18600,35656 -35660,18604 -35650,18087 -18090,-35657 -18600,-35657 35650,-18087 z m -21143412,12919 18087,35657 18604,35657 -35657,18603 -35657,18087 -18603,-35657 -18087,-35657 35657,-18086 z m 29619902,71314 203080,392224 203090,391707 -71830,-211357 -71830,-211356 -131260,-180351 z m -34237708,254764 -145727,27389 -146244,27905 -934827,499194 -934827,498678 146245,334863 146761,334347 552421,979268 551904,979269 976685,-527100 976684,-527100 33590,-56327 34106,-56327 -628385,-1257288 z m 4721159,222726 71830,23254 72347,22738 -22737,72347 -23255,71830 -49092,-95085 z m -12677262,42374 -945162,482142 -944645,482141 -35657,70796 -35140,70797 392741,668693 392741,668693 -880050,469222 -879532,468705 -40308,67180 -40308,67179 364319,703316 364319,703317 141593,-32040 141594,-32039 -120406,72864 -120406,72863 113688,234611 113688,235128 220658,382922 220659,382923 288354,528133 288355,528650 95601,153996 95601,153995 890902,-461470 890902,-461471 -206189,-412894 -206706,-412378 -472322,-884701 -471806,-884184 -86817,-6718 -86816,-6201 1093990,-549320 1093473,-549321 57878,-19120 57877,-19637 663526,1281059 663525,1281575 1007174,-542085 1007174,-542086 -1051616,-2031401 -1052132,-2031400 -1038180,512630 -1038179,512630 -10852,120923 -10335,121440 -208773,-389124 -208773,-389123 -234611,-420647 z m 34089911,242363 113690,144177 114200,144694 52190,176217 52200,176216 -166400,-320393 z m 6786150,236678 -35660,18087 -35660,18603 18610,35657 18600,35657 35660,-18604 35650,-18087 -18600,-35656 z m -68730,216007 -35660,18604 -35660,18603 18610,35657 18600,35657 35660,-18604 35650,-18603 -18600,-35657 z m -9820,156063 76480,133325 76480,133842 -10850,-113171 -11370,-112655 -65110,-20670 z m -32341696,147795 -22738,72347 -22738,71830 -72347,-22738 -71830,-22737 95085,-49610 z m 26113646,170015 114210,144178 113690,144694 52190,176216 52190,176217 -165880,-320394 z m 719340,214974 -31010,16020 -31520,16536 -7230,94052 -7240,94051 75450,-39274 75450,-38758 -36690,-71313 z m 3375510,59428 -35660,18604 -35660,18603 18610,35657 18080,35657 35660,-18604 35660,-18603 -18090,-35657 z m -38098971,26355 -23254,72347 -22738,72347 -71830,-23254 -72347,-22738 95085,-49092 z m 6940662,21187 18087,35657 18603,35657 -35657,18603 -35656,18604 -18604,-35657 -18087,-35656 35657,-18604 z m -7154602,89917 -22738,71831 -23254,72347 -71830,-22738 -72347,-23254 95084,-49093 z m -190169,127125 -216525,148828 -217041,148828 -246496,90950 -246497,91468 463538,-239779 z m 34810790,111104 18610,35657 18600,35656 -35660,18604 -35650,18087 -18610,-35140 -18600,-35657 35660,-18604 z m 6354650,53227 18610,35656 18090,35657 -35140,18604 -35660,18603 -18610,-35657 -18600,-35656 35660,-18604 z m 1113630,56327 18610,35657 18600,35656 -35660,18087 -35650,18604 -18610,-35657 -18600,-35657 35660,-18603 z m 1176670,23254 75450,44959 74930,45475 -49090,82166 -49090,82165 -57880,-111104 -57360,-111105 31520,-16019 z m -10579190,146245 18080,35140 18610,35656 -35660,18604 -35660,18603 -18600,-35656 -18090,-35657 35660,-18604 z m -31889014,33589 72347,22738 72347,23254 -23254,71831 -22738,72347 -49092,-95085 z m -1937866,39791 -20671,65112 -20670,65113 -113172,11369 -112654,10852 133842,-76482 z m 42337470,128674 18080,35657 18610,35657 -35660,18603 -35660,18087 -18600,-35657 -18090,-35656 35660,-18087 z m -40168093,103353 18603,35657 18087,35657 -35657,18603 -35657,18604 -18086,-35657 -18604,-35657 35657,-18603 z m 39093733,91468 18610,35656 18080,35657 -35650,18087 -35140,18603 -18610,-35656 -18600,-35657 35660,-18087 z m -250630,39274 18610,35656 18080,35657 -35650,18604 -35660,18603 -18090,-35657 -18600,-35656 35660,-18604 z m 1509470,122473 18090,35657 18600,35139 -35650,18604 -35660,18604 -18090,-35657 -18600,-35657 35650,-18603 z m -26360663,3100 -23254,71831 -22738,72347 -72347,-22738 -71830,-23254 95085,-49093 z m -237711,122990 18603,35657 18087,35657 -35657,18603 -35657,18087 -18086,-35657 -18604,-35656 35657,-18087 z m 16657384,50643 18080,35657 18610,35657 -35660,18603 -35660,18087 -18600,-35657 -18090,-35657 35660,-18086 z m -16776240,10852 -22738,72347 -23254,71830 -71831,-22737 -72347,-23255 95085,-49092 z m 26112620,215491 18600,35657 18090,35656 -35660,18604 -35660,18603 -18080,-35656 -18610,-35657 35660,-18604 z m -27532689,67696 -35656,18604 -35657,18603 18603,35657 18604,35657 35657,-18604 35656,-18603 -18603,-35657 z m 26207699,166398 18610,35657 18600,35657 -35660,18603 -35650,18604 -18610,-35657 -18600,-35657 35660,-18603 z m -8937950,19637 18080,35657 18610,35657 -35660,18086 -35660,18604 -18600,-35657 -18090,-35657 35660,-18603 z m -31517457,52193 18086,35657 18604,35657 -35657,18603 -35657,18604 -18086,-35657 -18604,-35657 35657,-18603 z m 17913118,33073 18603,35657 18604,35657 -35657,18603 -35657,18087 -18603,-35657 -18604,-35656 35657,-18087 z m 8510589,202055 18610,35657 18600,35657 -35660,18603 -35650,18604 -18610,-35657 -18600,-35657 35660,-18603 z m 4343920,10335 16020,31523 16540,31523 -48580,80615 -48570,81132 -38760,-75448 -39270,-75447 71310,-37207 z m -1531170,883151 18600,35656 18610,35657 -35660,18604 -35660,18603 -18600,-35657 -18600,-35656 35650,-18604 z m -2332670,33073 18600,35656 18090,35657 -35660,18604 -35660,18603 -18080,-35657 -18610,-35656 35660,-18604 z m -6423384,163297 18603,35657 18087,35657 -35657,18086 -35656,18604 -18087,-35657 -18604,-35657 35657,-18603 z m -10081038,429948 -31523,16536 -31523,16020 -7234,94051 -7235,94051 75448,-38757 75447,-39274 -36690,-71313 z m 31052882,97668 18090,35657 18600,35657 -35650,18603 -35660,18604 -18600,-35657 -18090,-35656 35660,-18604 z m -14103010,344166 -35660,18086 -35660,18604 18610,35657 18080,35656 35660,-18603 35660,-18604 -18090,-35140 z m 10368870,474906 72350,22738 72350,22737 -23260,72347 -22730,72347 -49100,-95084 z m 194310,200504 18600,35657 18600,35657 -35650,18603 -35660,18087 -18600,-35657 -18610,-35139 35660,-18604 z m -33380394,294556 -71314,36690 -71313,37207 55293,106971 55294,106453 71314,-36690 71313,-36690 -55294,-106971 z m 5422924,174150 -35656,18603 -35657,18087 18603,35657 18604,35656 35657,-18086 35656,-18604 -18603,-35657 z m 28828210,165364 18610,35657 18080,35140 -35650,18604 -35140,18603 -18610,-35657 -18600,-35656 35660,-18604 z m 5799130,114722 -883660,432532 -883150,432015 298690,593762 298690,593762 193270,424780 193270,424781 -19640,62011 -19640,62012 140560,96118 140040,96635 -929140,481108 -929140,481107 424780,819588 424260,819589 -314710,162780 -314710,163298 10340,107487 9820,107487 -51680,-85783 -51670,-86300 -241850,125057 -241850,125574 14990,134876 15500,135392 329180,635620 22740,43925 h 1695500 c 131320,0 261090,-25712 382410,-75964 121330,-50255 231670,-123667 324530,-216525 92860,-92859 166790,-203202 217040,-324528 50250,-121325 75960,-251600 75960,-382922 v -5784660 z m -6297800,143660 36690,70797 36690,71314 -75450,39274 -75450,39274 7240,-94051 7230,-94051 31520,-16537 z m -675930,440284 18600,35656 18090,35657 -35660,18087 -35650,18603 -18090,-35656 -18600,-35657 35650,-18604 z m -21256584,884700 -68213,35657 -68730,35140 75965,73897 75447,73897 148311,-43925 147795,-43408 -155546,-65629 z m 22636344,208256 18090,35657 18600,35657 -35660,18603 -35650,18604 -18610,-35657 -18080,-35657 35650,-18603 z m -22717476,28939 -212390,113171 -212391,113689 143144,-32557 143144,-32556 69246,-81132 z m 8456846,185518 49090,95085 49610,95085 22740,-72347 22740,-71831 -71830,-23254 z m 6762900,143144 18600,35657 18090,35657 -35660,18603 -35660,18604 -18080,-35657 -18610,-35657 35660,-18603 z m 73890,142627 18610,35657 18080,35657 -35650,18603 -35660,18604 -18090,-35657 -18600,-35657 35660,-18603 z m 6679180,156580 18610,35656 18080,35657 -35650,18604 -35660,18086 -18090,-35656 -18600,-35140 35660,-18604 z m -35465533,108520 18604,35657 18604,35657 -35657,18603 -35657,18604 -18603,-35657 -18604,-35657 35657,-18603 z m 23624393,239262 18090,35657 18610,35656 -35660,18087 -35660,18604 -18600,-35657 -18090,-35657 35660,-18603 z m 1224220,269751 18090,35657 18600,35656 -35660,18087 -35650,18604 -18090,-35657 -18600,-35657 35650,-18087 z m -2378150,237195 -94570,49092 -95080,49093 71830,23254 72340,22738 22740,-72347 z m -498680,258382 -95080,49093 -95090,49092 72350,23255 71830,22737 23250,-72347 z m 7323070,3617 -22740,72347 -23250,71831 -71830,-22738 -72350,-23254 95090,-49093 z m -4161500,166915 -23260,71830 -22740,72347 -72340,-22737 -71830,-23255 95080,-49092 z m 194820,260449 18600,35657 18600,35657 -35650,18087 -35660,18603 -18600,-35657 -18610,-35656 35660,-18604 z m 10705800,164331 -69240,81132 -69770,80616 -143140,32556 -143140,32556 212900,-113688 z m -11755870,18087 -23250,71830 -22740,72347 -72350,-22737 -71830,-23255 95090,-49092 z m 11110430,225826 219110,489376 219110,489376 140560,288871 140560,288871 -994770,487826 -994770,488342 -373110,-729154 -372580,-728638 480070,-294039 480590,-294039 527620,-243396 z m -3700540,4134 18600,35657 18600,35657 -35650,18087 -35660,18603 -18600,-35657 -18610,-35656 35660,-18604 z m -3876770,19121 18600,35656 18610,35657 -35660,18087 -35660,18603 -18600,-35656 -18600,-35657 35650,-18604 z m -4014740,14469 -70280,82166 -70280,81648 -108010,10336 -107480,10335 178280,-92501 z m 9113140,56327 18600,35657 18600,35657 -35650,18603 -35660,18604 -18600,-35657 -18090,-35657 35140,-18603 z m -38589379,9819 -35657,18087 -35657,18603 18087,35657 18604,35657 35656,-18604 35657,-18603 -18603,-35657 z m 29102619,113171 -23260,71830 -22740,72347 -72340,-22737 -71830,-23255 95080,-49092 z m -3362070,23771 18080,35657 18610,35657 -35660,18603 -35660,18087 -18600,-35657 -18090,-35656 35660,-18087 z m -98700,71831 -106974,96635 -106970,96634 -177250,52194 -177251,52710 284221,-148829 z m 3151740,64078 18610,35657 18080,35657 -35650,18603 -35660,18604 -18090,-35657 -18600,-35657 35650,-18603 z m 6988720,56328 72350,23254 71830,22738 -22740,72347 -22740,71830 -49610,-95085 z m -7202660,54777 18600,35656 18610,35657 -35660,18087 -35660,18603 -18600,-35656 -18600,-35657 35650,-18604 z m -3510379,114721 -69763,81132 -69246,80616 -143144,32556 -143144,32556 212907,-113171 z m 3271119,33590 -144180,114205 -144690,113688 -176220,52193 -176220,52194 320400,-165882 z m 7564910,34623 18610,35657 18600,35657 -35660,18603 -35650,18087 -18610,-35140 -18600,-35657 35660,-18603 z m -11376564,197404 18603,35657 18087,35657 -35657,18603 -35656,18604 -18087,-35657 -18604,-35657 35657,-18603 z m 3003954,41341 72340,22738 71830,22738 -22730,72347 -22740,72347 -49610,-95085 z m -24899775,89917 -752926,390157 -752925,390157 -99736,145211 -99735,144694 -220142,-425297 -220141,-425297 -148312,25838 -147794,25322 L 1385962,24252266 0,25000024 h 7108610 l -451135,-871782 -452169,-872814 -189136,-2584 -189136,-2584 -81648,91467 -81132,90951 -34624,-67696 -35140,-67697 155030,-136942 155029,-136943 -33073,-63562 z m 24806235,78549 18610,35656 18600,35657 -35660,18604 -35650,18603 -18610,-35657 -18080,-35656 35650,-18604 z m -12180649,41341 49609,95084 49093,95085 22737,-71830 23255,-72347 -72347,-22738 z m 22908159,368969 -22730,72347 -23260,71831 -71830,-22738 -72350,-22738 95090,-49609 z m -35903748,19121 27905,53743 27905,53227 -659908,340031 -659908,340548 69247,-118340 69246,-118855 562756,-274919 z m 18478458,75964 -134875,15503 -135393,14986 -813903,421163 -813387,421680 334863,646472 h 2349727 l -147278,-284220 z m 21748030,106970 -71320,36691 -71310,37207 36690,70796 37210,71314 71310,-36691 71310,-36690 -37200,-71313 z m -27028844,167949 -35657,18603 -35657,18604 18604,35656 18603,35657 35657,-18603 35657,-18604 -18604,-35657 z m 10410734,32039 18600,35657 18610,35657 -35660,18086 -35660,18604 -18600,-35657 -18600,-35657 35650,-18086 z m -142630,73897 18610,35657 18600,35657 -35660,18087 -35650,18603 -18610,-35657 -18080,-35656 35650,-18604 z m 16576250,242880 72350,23254 72350,22738 -23260,72347 -22740,71830 -49090,-95085 z m 742080,7751 -100770,52193 -101290,52193 -22740,72347 -22740,71831 27390,53226 27390,53227 111620,-80615 111620,-80099 -14980,-97151 z m -37425627,104386 -230477,79065 -230477,78549 -627868,313675 -625285,312643 h 2133720 l -193787,-361735 z m 30658077,236678 -95090,49610 -95080,49092 71830,22738 72350,23254 22740,-72347 z m -22435840,456303 -183968,80616 -23771,10335 h 258382 z" />
  <g
     id="g49349"
     style="fill:#c2c200;fill-opacity:0;stroke:#c2c200;stroke-width:100000;stroke-linecap:round;stroke-linejoin:round;stroke-opacity:1"
     transform="translate(-71207022,-19726961)" />
  <g
     id="g49351"
     style="fill:#c2c200;fill-opacity:0;stroke:#c2c200;stroke-width:100000;stroke-linecap:round;stroke-linejoin:round;stroke-opacity:1"
     transform="translate(-71207022,-19726961)" />
  <g
     id="g49353"
     style="fill:#c2c200;fill-opacity:0;stroke:#c2c200;stroke-width:100000;stroke-linecap:round;stroke-linejoin:round;stroke-opacity:1"
     transform="translate(-71207022,-19726961)" />
  <g
     id="g49355"
     style="fill:#c2c200;fill-opacity:0;stroke:#c2c200;stroke-width:100000;stroke-linecap:round;stroke-linejoin:round;stroke-opacity:1"
     transform="translate(-71207022,-19726961)" />
  <g
     id="g49357"
     style="fill:#c2c200;fill-opacity:0;stroke:#c2c200;stroke-width:100000;stroke-linecap:round;stroke-linejoin:round;stroke-opacity:1"
     transform="translate(-71207022,-19726961)" />
  <g
     id="g49359"
     style="fill:#c2c200;fill-opacity:0;stroke:#c2c200;stroke-width:100000;stroke-linecap:round;stroke-linejoin:round;stroke-opacity:1"
     transform="translate(-71207022,-19726961)" />
  <g
     id="g49361"
     style="fill:#c2c200;fill-opacity:0;stroke:#c2c200;stroke-width:100000;stroke-linecap:round;stroke-linejoin:round;stroke-opacity:1"
     transform="translate(-71207022,-19726961)" />
  <g
     id="g49363"
     style="fill:#c2c200;fill-opacity:0;stroke:#c2c200;stroke-width:100000;stroke-linecap:round;stroke-linejoin:round;stroke-opacity:1"
     transform="translate(-71207022,-19726961)" />
  <g
     id="g49365"
     style="fill:#c2c200;fill-opacity:0;stroke:#c2c200;stroke-width:100000;stroke-linecap:round;stroke-linejoin:round;stroke-opacity:1"
     transform="translate(-71207022,-19726961)" />
  <g
     id="g49367"
     style="fill:#c2c200;fill-opacity:0;stroke:#c2c200;stroke-width:100000;stroke-linecap:round;stroke-linejoin:round;stroke-opacity:1"
     transform="translate(-71207022,-19726961)" />
  <g
     id="g49369"
     style="fill:#c2c200;fill-opacity:0;stroke:#c2c200;stroke-width:100000;stroke-linecap:round;stroke-linejoin:round;stroke-opacity:1"
     transform="translate(-71207022,-19726961)" />
  <g
     id="g49371"
     style="fill:#c2c200;fill-opacity:0;stroke:#c2c200;stroke-width:100000;stroke-linecap:round;stroke-linejoin:round;stroke-opacity:1"
     transform="translate(-71207022,-19726961)" />
  <g
     id="g49373"
     style="fill:#c2c200;fill-opacity:0;stroke:#c2c200;stroke-width:100000;stroke-linecap:round;stroke-linejoin:round;stroke-opacity:1"
     transform="translate(-71207022,-19726961)" />
  <g
     id="g49375"
     style="fill:#c2c200;fill-opacity:0;stroke:#c2c200;stroke-width:100000;stroke-linecap:round;stroke-linejoin:round;stroke-opacity:1"
     transform="translate(-71207022,-19726961)" />
  <g
     id="g49377"
     style="fill:#c2c200;fill-opacity:0;stroke:#c2c200;stroke-width:100000;stroke-linecap:round;stroke-linejoin:round;stroke-opacity:1"
     transform="translate(-71207022,-19726961)" />
  <g
     id="g49379"
     style="fill:#c2c200;fill-opacity:0;stroke:#c2c200;stroke-width:100000;stroke-linecap:round;stroke-linejoin:round;stroke-opacity:1"
     transform="translate(-71207022,-19726961)" />
  <g
     id="g49381"
     style="fill:#c2c200;fill-opacity:0;stroke:#c2c200;stroke-width:100000;stroke-linecap:round;stroke-linejoin:round;stroke-opacity:1"
     transform="translate(-71207022,-19726961)" />
  <g
     id="g49383"
     style="fill:#c2c200;fill-opacity:0;stroke:#c2c200;stroke-width:100000;stroke-linecap:round;stroke-linejoin:round;stroke-opacity:1"
     transform="translate(-71207022,-19726961)" />
  <g
     id="g49385"
     style="fill:#c2c200;fill-opacity:0;stroke:#c2c200;stroke-width:100000;stroke-linecap:round;stroke-linejoin:round;stroke-opacity:1"
     transform="translate(-71207022,-19726961)" />
  <g
     id="g49387"
     style="fill:#c2c200;fill-opacity:0;stroke:#c2c200;stroke-width:100000;stroke-linecap:round;stroke-linejoin:round;stroke-opacity:1"
     transform="translate(-71207022,-19726961)" />
  <g
     id="g49389"
     style="fill:#c2c200;fill-opacity:0;stroke:#c2c200;stroke-width:100000;stroke-linecap:round;stroke-linejoin:round;stroke-opacity:1"
     transform="translate(-71207022,-19726961)" />
  <g
     id="g49391"
     style="fill:#c2c200;fill-opacity:0;stroke:#c2c200;stroke-width:100000;stroke-linecap:round;stroke-linejoin:round;stroke-opacity:1"
     transform="translate(-71207022,-19726961)" />
  <g
     id="g49393"
     style="fill:#c2c200;fill-opacity:0;stroke:#c2c200;stroke-width:100000;stroke-linecap:round;stroke-linejoin:round;stroke-opacity:1"
     transform="translate(-71207022,-19726961)" />
  <g
     id="g49395"
     style="fill:#c2c200;fill-opacity:0;stroke:#c2c200;stroke-width:100000;stroke-linecap:round;stroke-linejoin:round;stroke-opacity:1"
     transform="translate(-71207022,-19726961)" />
  <g
     id="g49397"
     style="fill:#c2c200;fill-opacity:0;stroke:#c2c200;stroke-width:100000;stroke-linecap:round;stroke-linejoin:round;stroke-opacity:1"
     transform="translate(-71207022,-19726961)" />
  <g
     id="g49399"
     style="fill:#c2c200;fill-opacity:0;stroke:#c2c200;stroke-width:100000;stroke-linecap:round;stroke-linejoin:round;stroke-opacity:1"
     transform="translate(-71207022,-19726961)" />
  <g
     id="g49401"
     style="fill:#c2c200;fill-opacity:0;stroke:#c2c200;stroke-width:100000;stroke-linecap:round;stroke-linejoin:round;stroke-opacity:1"
     transform="translate(-71207022,-19726961)" />
  <g
     id="g49403"
     style="fill:#c2c200;fill-opacity:0;stroke:#c2c200;stroke-width:100000;stroke-linecap:round;stroke-linejoin:round;stroke-opacity:1"
     transform="translate(-71207022,-19726961)" />
  <g
     id="g49405"
     style="fill:#c2c200;fill-opacity:0;stroke:#c2c200;stroke-width:100000;stroke-linecap:round;stroke-linejoin:round;stroke-opacity:1"
     transform="translate(-71207022,-19726961)" />
  <g
     id="g49407"
     style="fill:#c2c200;fill-opacity:0;stroke:#c2c200;stroke-width:100000;stroke-linecap:round;stroke-linejoin:round;stroke-opacity:1"
     transform="translate(-71207022,-19726961)" />
  <g
     id="g49409"
     style="fill:#c2c200;fill-opacity:0;stroke:#c2c200;stroke-width:100000;stroke-linecap:round;stroke-linejoin:round;stroke-opacity:1"
     transform="translate(-71207022,-19726961)" />
  <g
     id="g49411"
     style="fill:#c2c200;fill-opacity:0;stroke:#c2c200;stroke-width:100000;stroke-linecap:round;stroke-linejoin:round;stroke-opacity:1"
     transform="translate(-71207022,-19726961)" />
  <g
     id="g49413"
     style="fill:#c2c200;fill-opacity:0;stroke:#c2c200;stroke-width:100000;stroke-linecap:round;stroke-linejoin:round;stroke-opacity:1"
     transform="translate(-71207022,-19726961)" />
  <g
     id="g49415"
     style="fill:#c2c200;fill-opacity:0;stroke:#c2c200;stroke-width:100000;stroke-linecap:round;stroke-linejoin:round;stroke-opacity:1"
     transform="translate(-71207022,-19726961)" />
  <g
     id="g49417"
     style="fill:#c2c200;fill-opacity:0;stroke:#c2c200;stroke-width:100000;stroke-linecap:round;stroke-linejoin:round;stroke-opacity:1"
     transform="translate(-71207022,-19726961)" />
  <g
     id="g49419"
     style="fill:#c2c200;fill-opacity:0;stroke:#c2c200;stroke-width:100000;stroke-linecap:round;stroke-linejoin:round;stroke-opacity:1"
     transform="translate(-71207022,-19726961)" />
  <g
     id="g49421"
     style="fill:#c2c200;fill-opacity:0;stroke:#c2c200;stroke-width:100000;stroke-linecap:round;stroke-linejoin:round;stroke-opacity:1"
     transform="translate(-71207022,-19726961)" />
  <g
     id="g49423"
     style="fill:#c2c200;fill-opacity:0;stroke:#c2c200;stroke-width:100000;stroke-linecap:round;stroke-linejoin:round;stroke-opacity:1"
     transform="translate(-71207022,-19726961)" />
  <g
     id="g49253"
     style="fill:#848484;fill-opacity:0;stroke:#848484;stroke-width:50000;stroke-linecap:round;stroke-linejoin:round"
     transform="translate(-71207022,-19726961)" />
  <g
     id="g49255"
     style="fill:#848484;fill-opacity:0;stroke:#848484;stroke-width:50000;stroke-linecap:round;stroke-linejoin:round"
     transform="translate(-71207022,-19726961)" />
  <g
     id="g49257"
     style="fill:#848484;fill-opacity:0;stroke:#848484;stroke-width:50000;stroke-linecap:round;stroke-linejoin:round"
     transform="translate(-71207022,-19726961)" />
  <g
     id="g49259"
     style="fill:#848484;fill-opacity:0;stroke:#848484;stroke-width:50000;stroke-linecap:round;stroke-linejoin:round"
     transform="translate(-71207022,-19726961)" />
  <g
     id="g49261"
     style="fill:#848484;fill-opacity:0;stroke:#848484;stroke-width:50000;stroke-linecap:round;stroke-linejoin:round"
     transform="translate(-71207022,-19726961)" />
  <g
     id="g49263"
     style="fill:#848484;fill-opacity:0;stroke:#848484;stroke-width:50000;stroke-linecap:round;stroke-linejoin:round"
     transform="translate(-71207022,-19726961)" />
  <g
     id="g49265"
     style="fill:#848484;fill-opacity:0;stroke:#848484;stroke-width:50000;stroke-linecap:round;stroke-linejoin:round"
     transform="translate(-71207022,-19726961)" />
  <g
     id="g49267"
     style="fill:#848484;fill-opacity:0;stroke:#848484;stroke-width:50000;stroke-linecap:round;stroke-linejoin:round"
     transform="translate(-71207022,-19726961)" />
  <g
     id="g49269"
     style="fill:#848484;fill-opacity:0;stroke:#848484;stroke-width:50000;stroke-linecap:round;stroke-linejoin:round"
     transform="translate(-71207022,-19726961)" />
  <g
     id="g49271"
     style="fill:#848484;fill-opacity:0;stroke:#848484;stroke-width:50000;stroke-linecap:round;stroke-linejoin:round"
     transform="translate(-71207022,-19726961)" />
  <g
     id="g49273"
     style="fill:#848484;fill-opacity:0;stroke:#848484;stroke-width:50000;stroke-linecap:round;stroke-linejoin:round"
     transform="translate(-71207022,-19726961)" />
  <g
     id="g49275"
     style="fill:#848484;fill-opacity:0;stroke:#848484;stroke-width:50000;stroke-linecap:round;stroke-linejoin:round"
     transform="translate(-71207022,-19726961)" />
  <g
     id="g49277"
     style="fill:#848484;fill-opacity:0;stroke:#848484;stroke-width:50000;stroke-linecap:round;stroke-linejoin:round"
     transform="translate(-71207022,-19726961)" />
  <g
     id="g49279"
     style="fill:#848484;fill-opacity:0;stroke:#848484;stroke-width:50000;stroke-linecap:round;stroke-linejoin:round"
     transform="translate(-71207022,-19726961)" />
  <g
     id="g49281"
     style="fill:#848484;fill-opacity:0;stroke:#848484;stroke-width:50000;stroke-linecap:round;stroke-linejoin:round"
     transform="translate(-71207022,-19726961)" />
  <g
     id="g49283"
     style="fill:#848484;fill-opacity:0;stroke:#848484;stroke-width:50000;stroke-linecap:round;stroke-linejoin:round"
     transform="translate(-71207022,-19726961)" />
  <g
     id="g49285"
     style="fill:#848484;fill-opacity:0;stroke:#848484;stroke-width:50000;stroke-linecap:round;stroke-linejoin:round"
     transform="translate(-71207022,-19726961)" />
  <g
     id="g49287"
     style="fill:#848484;fill-opacity:0;stroke:#848484;stroke-width:50000;stroke-linecap:round;stroke-linejoin:round"
     transform="translate(-71207022,-19726961)" />
  <g
     id="g49289"
     style="fill:#848484;fill-opacity:0;stroke:#848484;stroke-width:50000;stroke-linecap:round;stroke-linejoin:round"
     transform="translate(-71207022,-19726961)" />
  <g
     id="g49291"
     style="fill:#848484;fill-opacity:0;stroke:#848484;stroke-width:50000;stroke-linecap:round;stroke-linejoin:round"
     transform="translate(-71207022,-19726961)" />
  <g
     id="g49293"
     style="fill:#848484;fill-opacity:0;stroke:#848484;stroke-width:50000;stroke-linecap:round;stroke-linejoin:round"
     transform="translate(-71207022,-19726961)" />
  <g
     id="g49295"
     style="fill:#848484;fill-opacity:0;stroke:#848484;stroke-width:50000;stroke-linecap:round;stroke-linejoin:round"
     transform="translate(-71207022,-19726961)" />
  <g
     id="g49297"
     style="fill:#848484;fill-opacity:0;stroke:#848484;stroke-width:50000;stroke-linecap:round;stroke-linejoin:round"
     transform="translate(-71207022,-19726961)" />
  <g
     id="g49299"
     style="fill:#848484;fill-opacity:0;stroke:#848484;stroke-width:50000;stroke-linecap:round;stroke-linejoin:round"
     transform="translate(-71207022,-19726961)" />
  <g
     id="g49301"
     style="fill:#848484;fill-opacity:0;stroke:#848484;stroke-width:50000;stroke-linecap:round;stroke-linejoin:round"
     transform="translate(-71207022,-19726961)" />
  <g
     id="g49303"
     style="fill:#848484;fill-opacity:0;stroke:#848484;stroke-width:50000;stroke-linecap:round;stroke-linejoin:round"
     transform="translate(-71207022,-19726961)" />
  <g
     id="g49305"
     style="fill:#848484;fill-opacity:0;stroke:#848484;stroke-width:50000;stroke-linecap:round;stroke-linejoin:round"
     transform="translate(-71207022,-19726961)" />
  <g
     id="g49307"
     style="fill:#848484;fill-opacity:0;stroke:#848484;stroke-width:50000;stroke-linecap:round;stroke-linejoin:round"
     transform="translate(-71207022,-19726961)" />
  <g
     id="g49309"
     style="fill:#848484;fill-opacity:0;stroke:#848484;stroke-width:50000;stroke-linecap:round;stroke-linejoin:round"
     transform="translate(-71207022,-19726961)" />
  <g
     id="g49311"
     style="fill:#848484;fill-opacity:0;stroke:#848484;stroke-width:50000;stroke-linecap:round;stroke-linejoin:round"
     transform="translate(-71207022,-19726961)" />
  <g
     id="g49313"
     style="fill:#848484;fill-opacity:0;stroke:#848484;stroke-width:50000;stroke-linecap:round;stroke-linejoin:round"
     transform="translate(-71207022,-19726961)" />
  <g
     id="g49315"
     style="fill:#848484;fill-opacity:0;stroke:#848484;stroke-width:50000;stroke-linecap:round;stroke-linejoin:round"
     transform="translate(-71207022,-19726961)" />
  <g
     id="g49317"
     style="fill:#848484;fill-opacity:0;stroke:#848484;stroke-width:50000;stroke-linecap:round;stroke-linejoin:round"
     transform="translate(-71207022,-19726961)" />
  <g
     id="g49319"
     style="fill:#848484;fill-opacity:0;stroke:#848484;stroke-width:50000;stroke-linecap:round;stroke-linejoin:round"
     transform="translate(-71207022,-19726961)" />
  <g
     id="g49321"
     style="fill:#848484;fill-opacity:0;stroke:#848484;stroke-width:50000;stroke-linecap:round;stroke-linejoin:round"
     transform="translate(-71207022,-19726961)" />
  <g
     id="g49323"
     style="fill:#848484;fill-opacity:0;stroke:#848484;stroke-width:50000;stroke-linecap:round;stroke-linejoin:round"
     transform="translate(-71207022,-19726961)" />
  <g
     id="g49325"
     style="fill:#848484;fill-opacity:0;stroke:#848484;stroke-width:50000;stroke-linecap:round;stroke-linejoin:round"
     transform="translate(-71207022,-19726961)" />
  <g
     id="g49327"
     style="fill:#848484;fill-opacity:0;stroke:#848484;stroke-width:50000;stroke-linecap:round;stroke-linejoin:round"
     transform="translate(-71207022,-19726961)" />
  <metadata
     id="metadata50693">
    <rdf:RDF>
      <cc:Work
         rdf:about="">
        <dc:title>SVG Picture created as PCB-B_Courtyard.svg date 2023/08/26 15:14:45 </dc:title>
      </cc:Work>
    </rdf:RDF>
  </metadata>
</svg>
